<?xml version="1.0" ?><!-- Uploaded to: SVG Repo, www.svgrepo.com, Generator: SVG Repo Mixer Tools -->
<svg width="800px" height="800px" viewBox="0 0 24 24" id="Layer_4" version="1.1" xml:space="preserve" xmlns="http://www.w3.org/2000/svg" xmlns:xlink="http://www.w3.org/1999/xlink"><style type="text/css">
	.st0{fill:#020441;}
</style><path class="st0" d="M17.26,13.107V7.39c0-0.135-0.054-0.264-0.15-0.357l-0.454-0.444c-0.016-0.022-0.034-0.043-0.052-0.063  l-3.366-3.366C13.143,3.063,13.014,3.01,12.88,3.01h-2.12c-0.276,0-0.5,0.224-0.5,0.5s0.224,0.5,0.5,0.5h1.648  c-0.02,0.071-0.033,0.145-0.033,0.221V6.38c0,0.832,0.677,1.51,1.51,1.51h2.149c0.078,0,0.154-0.012,0.226-0.034v4.943  c-0.018-0.003-0.035-0.002-0.054-0.005c-0.2-0.033-0.396-0.054-0.586-0.054c-2.272,0-4.12,1.853-4.12,4.13  c0,0.283,0.036,0.558,0.091,0.826c0.017,0.084,0.044,0.163,0.066,0.246c0.049,0.184,0.108,0.362,0.182,0.535  c0.036,0.086,0.075,0.169,0.117,0.252c0.085,0.168,0.182,0.326,0.288,0.48c0.047,0.067,0.088,0.137,0.139,0.201  c0.164,0.209,0.342,0.406,0.543,0.58l0,0H6.74c-0.816,0-1.48-0.673-1.48-1.5V5.51c0-0.827,0.664-1.5,1.48-1.5h2.301  c0.276,0,0.5-0.224,0.5-0.5s-0.224-0.5-0.5-0.5H6.74c-1.368,0-2.48,1.121-2.48,2.5v12.98c0,1.379,1.113,2.5,2.48,2.5h8.03  c0.138,0,0.251-0.021,0.365-0.041c0.161,0.025,0.323,0.041,0.485,0.041c2.272,0,4.12-1.849,4.12-4.12  C19.74,15.202,18.745,13.736,17.26,13.107z M13.885,6.89c-0.281,0-0.51-0.229-0.51-0.51V4.717l2.173,2.173H13.885z M15.62,19.99  c-0.129,0-0.258-0.007-0.479-0.04l-0.139-0.031c-1.45-0.271-2.502-1.554-2.502-3.049c0-1.726,1.4-3.13,3.12-3.13  c0.237,0,0.502,0.039,0.781,0.115c0.061,0.015,0.121,0.029,0.204,0.061c1.277,0.414,2.135,1.601,2.135,2.954  C18.74,18.591,17.34,19.99,15.62,19.99z"/><path class="st0" d="M15.502,15.353c-0.201-0.188-0.519-0.177-0.707,0.024c-0.188,0.201-0.178,0.518,0.024,0.706l0.837,0.782  l-0.837,0.781c-0.202,0.188-0.212,0.505-0.024,0.706c0.099,0.105,0.232,0.159,0.366,0.159c0.122,0,0.245-0.045,0.341-0.135  l1.229-1.146c0.101-0.094,0.159-0.227,0.159-0.365s-0.058-0.271-0.159-0.365L15.502,15.353z"/></svg>