<svg version="1.1" id="Uploaded to svgrepo.com" xmlns="http://www.w3.org/2000/svg" xmlns:xlink="http://www.w3.org/1999/xlink" x="0px" y="0px"
	 width="32px" height="32px" viewBox="0 0 32 32" style="enable-background:new 0 0 32 32;" xml:space="preserve">
<style type="text/css">
	.linesandangles_een{fill:#111918;}
</style>
<path class="linesandangles_een" d="M25.414,14l-6.707-6.707l-1.414,1.414L22.586,14H9.414l5.293-5.293l-1.414-1.414L6.586,14H4
	l2,14h20l2-14H25.414z M24.265,26H7.735L6.306,16h19.388L24.265,26z M11,20H9v-2h2V20z M15,20h-2v-2h2V20z M19,20h-2v-2h2V20z
	 M23,20h-2v-2h2V20z M11,24H9v-2h2V24z M15,24h-2v-2h2V24z M19,24h-2v-2h2V24z M23,24h-2v-2h2V24z"/>
</svg>